<svg width="880" height="852" viewBox="0 0 880 852" fill="none" xmlns="http://www.w3.org/2000/svg">
<path d="M592.269 459.537C612.296 439.564 628.176 415.83 639 389.701C649.824 363.572 655.379 335.561 655.344 307.279C655.379 278.996 649.824 250.985 639 224.857C628.176 198.727 612.296 174.994 592.269 155.021M287.731 155.021C267.706 174.994 251.824 198.727 241 224.857C230.176 250.985 224.621 278.996 224.656 307.279C224.621 335.561 230.176 363.572 241 389.701C251.824 415.83 267.706 439.564 287.731 459.537M344.172 200.691C330.155 214.675 319.041 231.29 311.464 249.582C303.889 267.873 300.002 287.48 300.027 307.279C300.002 327.077 303.889 346.684 311.464 364.976C319.041 383.267 330.155 399.883 344.172 413.867M535.828 413.867C549.845 399.883 560.96 383.267 568.536 364.976C576.111 346.684 579.998 327.077 579.973 307.279C579.998 287.48 576.111 267.873 568.536 249.582C560.96 231.29 549.845 214.675 535.828 200.691" stroke="#FF8B43" stroke-width="35" stroke-linecap="round"/>
<path d="M441.591 522.74C453.189 522.74 464.312 518.132 472.512 509.932C480.715 501.73 485.321 490.608 485.321 479.011C485.321 467.414 480.715 456.291 472.512 448.091C464.312 439.89 453.189 435.283 441.591 435.283C429.992 435.283 418.869 439.89 410.668 448.091C402.466 456.291 397.859 467.414 397.859 479.011C397.859 490.608 402.466 501.73 410.668 509.932C418.869 518.132 429.992 522.74 441.591 522.74Z" fill="#FF0047"/>
<path d="M440.795 370.088V114.08" stroke="#FF0047" stroke-width="35" stroke-linecap="round"/>
<path d="M197.936 622.703C202.703 622.703 207.233 623.657 211.524 625.564C215.815 627.351 219.57 629.854 222.788 633.072C226.006 636.29 228.509 640.105 230.297 644.514C232.204 648.805 233.158 653.393 233.158 658.28V709.054C233.158 713.941 232.204 718.529 230.297 722.82C228.509 727.111 226.006 730.865 222.788 734.083C219.57 737.301 215.815 739.864 211.524 741.771C207.233 743.559 202.703 744.452 197.936 744.452H183.99C179.102 744.452 174.514 743.559 170.223 741.771C165.932 739.864 162.177 737.301 158.959 734.083C155.859 730.865 153.356 727.111 151.449 722.82C149.543 718.529 148.589 713.941 148.589 709.054V658.28C148.589 653.393 149.543 648.805 151.449 644.514C153.356 640.105 155.859 636.29 158.959 633.072C162.177 629.854 165.932 627.351 170.223 625.564C174.514 623.657 179.102 622.703 183.99 622.703H197.936ZM211.345 659.353C211.345 655.062 210.094 651.427 207.591 648.447C205.206 645.468 201.929 643.978 197.757 643.978H184.169C179.996 643.978 176.659 645.468 174.156 648.447C171.772 651.427 170.58 655.062 170.58 659.353V707.803C170.58 712.093 171.772 715.788 174.156 718.887C176.659 721.866 179.996 723.356 184.169 723.356H197.757C201.929 723.356 205.206 721.866 207.591 718.887C210.094 715.788 211.345 712.093 211.345 707.803V659.353ZM358.023 669.007C363.029 669.007 367.678 669.961 371.969 671.868C376.379 673.774 380.133 676.456 383.233 679.913C386.451 683.25 388.894 687.303 390.563 692.07C392.351 696.718 393.245 701.843 393.245 707.445C393.245 712.69 392.411 717.575 390.742 722.105C389.193 726.634 386.928 730.568 383.948 733.904C380.969 737.122 377.451 739.685 373.399 741.592C369.347 743.499 364.817 744.452 359.811 744.452H304.385V721.926H353.374C355.759 721.926 358.023 721.629 360.169 721.032C362.433 720.436 364.341 719.542 365.89 718.351C367.439 717.159 368.691 715.669 369.645 713.881C370.599 712.093 371.075 709.948 371.075 707.445C371.075 702.797 369.526 699.161 366.426 696.539C363.447 693.918 359.692 692.606 355.162 692.606H340.68C334.601 692.606 329.058 691.951 324.052 690.64C319.046 689.328 314.815 687.243 311.358 684.382C307.901 681.522 305.219 677.827 303.312 673.298C301.406 668.768 300.451 663.346 300.451 657.029C300.451 652.619 301.227 648.329 302.776 644.157C304.325 639.985 306.47 636.35 309.212 633.251C311.954 630.033 315.291 627.47 319.225 625.564C323.158 623.657 327.509 622.703 332.277 622.703H382.518V646.481H341.574C339.19 646.481 336.985 646.66 334.959 647.017C332.932 647.256 331.144 647.792 329.595 648.626C328.046 649.341 326.853 650.474 326.019 652.023C325.185 653.572 324.767 655.659 324.767 658.28C324.767 661.26 325.78 663.823 327.807 665.968C329.834 667.995 332.574 669.007 336.031 669.007H358.023ZM408.087 622.703H430.793V744.452H408.087V622.703ZM499.006 723.356C502.463 723.356 505.264 722.344 507.409 720.317C509.555 718.172 510.985 715.609 511.7 712.63V692.427H491.497V673.298H532.262V744.452H511.7V740.519C509.316 741.831 506.694 742.843 503.833 743.559C501.091 744.155 498.291 744.452 495.43 744.452H483.093C478.326 744.452 473.796 743.559 469.505 741.771C465.214 739.864 461.459 737.301 458.241 734.083C455.023 730.865 452.46 727.111 450.553 722.82C448.765 718.529 447.871 713.941 447.871 709.054V658.28C447.871 653.393 448.765 648.805 450.553 644.514C452.46 640.105 455.023 636.29 458.241 633.072C461.459 629.854 465.214 627.351 469.505 625.564C473.796 623.657 478.326 622.703 483.093 622.703H498.47C503.118 622.703 507.409 623.537 511.343 625.206C515.276 626.875 518.673 629.199 521.534 632.178C524.513 635.039 526.898 638.436 528.686 642.369C530.474 646.302 531.607 650.533 532.083 655.062H510.091C509.257 651.963 507.946 649.341 506.158 647.196C504.489 645.051 501.867 643.978 498.291 643.978H483.272C481.245 643.978 479.339 644.396 477.551 645.229C475.882 645.944 474.451 647.017 473.26 648.447C472.068 649.878 471.114 651.547 470.399 653.453C469.803 655.241 469.505 657.208 469.505 659.353V707.803C469.505 709.948 469.803 711.975 470.399 713.881C471.114 715.669 472.068 717.278 473.26 718.708C474.451 720.138 475.882 721.271 477.551 722.105C479.339 722.939 481.245 723.356 483.272 723.356H499.006ZM710.551 725.859H677.832L673.362 744.452H651.728L683.017 622.703H706.26L736.297 744.452H714.842L710.551 725.859ZM682.123 707.803H706.439L695.175 658.102H693.923L682.123 707.803ZM770.3 723.893H836.275V744.452H748.845V622.703H770.3V723.893Z" fill="#FF8B43"/>
<path d="M578.487 704.07V624.334H556.674V746.084H578.487L619.788 665.633V746.084H641.065V624.334H619.788L578.487 704.07Z" fill="#FF8B43"/>
<path d="M70.0423 704.07V624.334H48.2295V746.084H70.0423L111.344 665.633V746.084H132.62V624.334H111.344L70.0423 704.07Z" fill="#FF8B43"/>
</svg>
